<?xml version="1.0" encoding="UTF-8"?>
<!DOCTYPE svg PUBLIC "-//W3C//DTD SVG 1.1//EN" "http://www.w3.org/Graphics/SVG/1.1/DTD/svg11.dtd">
<svg xmlns="http://www.w3.org/2000/svg" version="1.1" width="1097px" height="908px" style="shape-rendering:geometricPrecision; text-rendering:geometricPrecision; image-rendering:optimizeQuality; fill-rule:evenodd; clip-rule:evenodd" xmlns:xlink="http://www.w3.org/1999/xlink">
<g><path style="opacity:1" fill="#2760ae" d="M 501.5,-0.5 C 521.167,-0.5 540.833,-0.5 560.5,-0.5C 691.045,9.93691 798.712,64.6036 883.5,163.5C 883.427,165.027 884.094,166.027 885.5,166.5C 896.404,178.914 906.404,192.081 915.5,206C 913.297,207.623 910.797,208.457 908,208.5C 903.842,207.927 899.676,207.427 895.5,207C 870.742,170.903 841.075,139.236 806.5,112C 804.5,111.333 802.5,111.333 800.5,112C 787.746,120.463 774.58,128.296 761,135.5C 760.541,138.93 761.541,141.93 764,144.5C 769.79,149.454 774.623,155.121 778.5,161.5C 778.427,163.027 779.094,164.027 780.5,164.5C 790.471,177.751 799.971,191.418 809,205.5C 809.528,206.816 809.028,207.483 807.5,207.5C 801.441,207.746 795.441,207.413 789.5,206.5C 775.267,184.74 759.1,164.406 741,145.5C 716.759,155.858 691.926,164.525 666.5,171.5C 664.448,172.053 664.115,173.053 665.5,174.5C 669.5,185.167 673.5,195.834 677.5,206.5C 672.025,207.489 666.358,207.822 660.5,207.5C 655.336,198.506 650.67,189.173 646.5,179.5C 645.758,178.713 644.925,178.047 644,177.5C 611.008,185.395 577.508,189.895 543.5,191C 541.899,196.239 540.899,201.739 540.5,207.5C 534.97,208.815 529.47,208.815 524,207.5C 523.977,201.818 523.144,196.318 521.5,191C 486.199,189.733 451.365,185.233 417,177.5C 411.894,187.378 407.061,197.378 402.5,207.5C 396.575,209.539 390.575,209.872 384.5,208.5C 387.141,199.542 390.641,190.875 395,182.5C 396.523,179.509 397.023,176.509 396.5,173.5C 371.383,165.184 346.549,156.184 322,146.5C 304.717,165.747 288.884,186.081 274.5,207.5C 273.311,208.429 271.978,208.762 270.5,208.5C 265.637,208.819 260.97,208.486 256.5,207.5C 262.557,195.724 269.39,184.391 277,173.5C 285.976,161.69 295.143,150.023 304.5,138.5C 289.453,129.891 274.62,120.891 260,111.5C 233.136,131.36 209.136,154.36 188,180.5C 180.919,189.4 174.086,198.4 167.5,207.5C 161.31,207.823 155.31,207.49 149.5,206.5C 220.54,99.2491 319.54,32.7491 446.5,7C 464.859,3.58176 483.193,1.08176 501.5,-0.5 Z M 517.5,15.5 C 553.906,14.8854 589.906,18.3854 625.5,26C 626.86,27.9376 626.527,29.6043 624.5,31C 575.82,59.7051 524.487,65.3718 470.5,48C 459.276,43.7211 448.609,38.3878 438.5,32C 434.241,28.9641 434.574,26.7974 439.5,25.5C 465.379,20.0345 491.379,16.7011 517.5,15.5 Z M 330.5,113.5 C 326.227,116.434 322.227,119.767 318.5,123.5C 314.627,122.566 310.961,121.066 307.5,119C 297.5,113.333 287.5,107.667 277.5,102C 276.065,99.7328 276.398,97.7328 278.5,96C 318.721,68.2252 362.388,47.3919 409.5,33.5C 413.408,35.245 416.908,37.5783 420,40.5C 420.798,42.2588 420.631,43.9255 419.5,45.5C 391.29,62.8745 364.624,82.3745 339.5,104C 336.296,107.036 333.296,110.203 330.5,113.5 Z M 651.5,33.5 C 699.979,46.3255 744.479,67.3255 785,96.5C 785.667,97.8333 785.667,99.1667 785,100.5C 773.085,107.207 761.252,114.04 749.5,121C 747.167,121.667 744.833,121.667 742.5,121C 713.263,91.0789 680.597,65.7456 644.5,45C 642.789,43.8668 642.289,42.3668 643,40.5C 645.628,37.7895 648.461,35.4562 651.5,33.5 Z M 671.5,82.5 C 671.973,83.9063 672.973,84.573 674.5,84.5C 692.028,98.1826 708.861,112.849 725,128.5C 725.49,129.793 725.657,131.127 725.5,132.5C 704.199,141.879 682.199,149.379 659.5,155C 657.833,155.667 656.167,155.667 654.5,155C 637.201,124.221 618.034,94.7213 597,66.5C 596.517,65.552 596.351,64.552 596.5,63.5C 604.914,60.4628 613.247,57.1295 621.5,53.5C 639.144,61.6497 655.811,71.3163 671.5,82.5 Z M 438.5,54.5 C 447.092,56.6222 455.425,59.6222 463.5,63.5C 464.641,65.4213 464.808,67.4213 464,69.5C 442.939,96.4185 424.439,125.085 408.5,155.5C 406.926,156.631 405.259,156.798 403.5,156C 381.49,149.886 359.99,142.386 339,133.5C 338.313,131.08 338.813,128.913 340.5,127C 370.534,99.1132 403.2,74.9466 438.5,54.5 Z M 523.5,149.5 C 523.098,157.255 522.098,164.922 520.5,172.5C 489.192,172.045 458.192,168.711 427.5,162.5C 427.337,160.143 427.503,157.81 428,155.5C 444.649,125.531 463.649,97.198 485,70.5C 497.434,72.3671 509.934,74.0337 522.5,75.5C 523.286,100.158 523.619,124.825 523.5,149.5 Z M 569.5,71.5 C 572.187,71.3359 574.854,71.5026 577.5,72C 600.483,99.4651 619.816,129.298 635.5,161.5C 604.561,168.451 573.228,172.117 541.5,172.5C 540.217,140.166 540.217,107.832 541.5,75.5C 551.057,74.8014 560.39,73.4681 569.5,71.5 Z"/></g>
<g><path style="opacity:0.992" fill="#97a6d4" d="M 671.5,82.5 C 673.027,82.427 674.027,83.0937 674.5,84.5C 672.973,84.573 671.973,83.9063 671.5,82.5 Z"/></g>
<g><path style="opacity:1" fill="#6e88c4" d="M 330.5,113.5 C 327.371,117.131 324.037,120.631 320.5,124C 319.563,124.692 318.897,124.525 318.5,123.5C 322.227,119.767 326.227,116.434 330.5,113.5 Z"/></g>
<g><path style="opacity:0.812" fill="#c0c8e5" d="M 523.5,149.5 C 523.5,157.167 523.5,164.833 523.5,172.5C 522.5,172.5 521.5,172.5 520.5,172.5C 522.098,164.922 523.098,157.255 523.5,149.5 Z"/></g>
<g><path style="opacity:1" fill="#9dabd6" d="M 778.5,161.5 C 779.906,161.973 780.573,162.973 780.5,164.5C 779.094,164.027 778.427,163.027 778.5,161.5 Z"/></g>
<g><path style="opacity:1" fill="#9dabd6" d="M 883.5,163.5 C 884.906,163.973 885.573,164.973 885.5,166.5C 884.094,166.027 883.427,165.027 883.5,163.5 Z"/></g>
<g><path style="opacity:0.914" fill="#9aa9d6" d="M 666.5,171.5 C 665.89,172.391 665.557,173.391 665.5,174.5C 664.115,173.053 664.448,172.053 666.5,171.5 Z"/></g>
<g><path style="opacity:0.992" fill="#8497cc" d="M 149.5,206.5 C 155.31,207.49 161.31,207.823 167.5,207.5C 161.322,208.817 154.988,208.817 148.5,207.5C 148.624,206.893 148.957,206.56 149.5,206.5 Z"/></g>
<g><path style="opacity:0.992" fill="#889ace" d="M 677.5,206.5 C 678.043,206.56 678.376,206.893 678.5,207.5C 672.346,208.817 666.346,208.817 660.5,207.5C 666.358,207.822 672.025,207.489 677.5,206.5 Z"/></g>
<g><path style="opacity:1" fill="#6b85c2" d="M 789.5,206.5 C 795.441,207.413 801.441,207.746 807.5,207.5C 802.015,208.652 796.349,208.818 790.5,208C 789.944,207.617 789.611,207.117 789.5,206.5 Z"/></g>
<g><path style="opacity:0.992" fill="#96a5d4" d="M 256.5,207.5 C 260.97,208.486 265.637,208.819 270.5,208.5C 265.652,209.814 260.652,209.814 255.5,208.5C 255.624,207.893 255.957,207.56 256.5,207.5 Z"/></g>
<g><path style="opacity:1" fill="#155cab" d="M 527.5,265.5 C 527.821,267.048 528.821,267.715 530.5,267.5C 533.807,269.153 537.14,270.82 540.5,272.5C 540.821,274.048 541.821,274.715 543.5,274.5C 547.987,277.081 552.654,279.081 557.5,280.5C 557.5,272.833 557.5,265.167 557.5,257.5C 586.167,257.5 614.833,257.5 643.5,257.5C 644.789,303.324 644.789,348.991 643.5,394.5C 615.123,394.817 586.789,394.483 558.5,393.5C 542.566,371.513 521.566,356.347 495.5,348C 474.748,340.95 453.415,337.45 431.5,337.5C 422.693,337.307 414.359,339.14 406.5,343C 396.757,352.074 397.424,360.408 408.5,368C 458.582,383.771 508.915,398.771 559.5,413C 567.421,415.63 575.088,418.796 582.5,422.5C 582.821,424.048 583.821,424.715 585.5,424.5C 615.953,441.119 637.786,465.452 651,497.5C 665.057,547.113 653.89,589.946 617.5,626C 593.978,644.419 567.312,655.753 537.5,660C 478.797,667.926 423.797,657.259 372.5,628C 371.207,627.51 369.873,627.343 368.5,627.5C 368.5,636.5 368.5,645.5 368.5,654.5C 338.833,654.5 309.167,654.5 279.5,654.5C 279.5,604.833 279.5,555.167 279.5,505.5C 306.502,505.333 333.502,505.5 360.5,506C 371.82,526.154 387.82,541.321 408.5,551.5C 408.821,553.048 409.821,553.715 411.5,553.5C 447.468,569.664 484.468,572.498 522.5,562C 530.185,560.003 533.352,555.169 532,547.5C 530.167,544.333 527.667,541.833 524.5,540C 475.442,523.87 426.109,508.537 376.5,494C 339.949,483.085 311.116,461.918 290,430.5C 276.956,406.355 272.623,380.689 277,353.5C 283.236,310.271 306.403,280.104 346.5,263C 381.529,248.811 417.862,243.811 455.5,248C 480.477,250.078 504.477,255.911 527.5,265.5 Z"/></g>
<g><path style="opacity:1" fill="#145bab" d="M 994.5,270.5 C 994.821,272.048 995.821,272.715 997.5,272.5C 997.833,272.5 998.167,272.5 998.5,272.5C 998.821,274.048 999.821,274.715 1001.5,274.5C 1026.33,286.088 1046.67,303.088 1062.5,325.5C 1062.43,327.027 1063.09,328.027 1064.5,328.5C 1067.86,332.387 1070.7,336.721 1073,341.5C 1086.03,370.62 1093.86,400.954 1096.5,432.5C 1096.5,447.5 1096.5,462.5 1096.5,477.5C 1093.74,511.527 1084.57,543.86 1069,574.5C 1049.77,607.394 1022.27,630.56 986.5,644C 933.39,663.611 879.057,667.944 823.5,657C 787.167,649.163 754.5,633.83 725.5,611C 710.571,597.257 698.571,581.424 689.5,563.5C 689.715,561.821 689.048,560.821 687.5,560.5C 671.178,523.241 664.345,484.241 667,443.5C 667.935,413.216 673.602,383.883 684,355.5C 704.174,309.658 738.008,278.825 785.5,263C 843.636,242.968 902.303,241.301 961.5,258C 972.741,261.624 983.741,265.791 994.5,270.5 Z M 874.5,347.5 C 894.703,345.7 913.036,350.534 929.5,362C 937.754,370.061 942.587,379.895 944,391.5C 947.568,409.484 949.401,427.651 949.5,446C 948.98,468.202 947.813,490.369 946,512.5C 943.726,536.27 931.226,551.437 908.5,558C 887.842,563.397 867.509,562.397 847.5,555C 832.136,547.275 823.302,534.775 821,517.5C 819.014,508.597 817.681,499.597 817,490.5C 816.15,463.149 816.483,435.816 818,408.5C 818.399,370.939 837.232,350.606 874.5,347.5 Z"/></g>
<g><path style="opacity:1" fill="#105bab" d="M -0.5,251.5 C 84.8333,251.5 170.167,251.5 255.5,251.5C 255.169,281.338 255.502,311.005 256.5,340.5C 256.5,343.833 256.5,347.167 256.5,350.5C 236.833,350.5 217.167,350.5 197.5,350.5C 196.501,418.998 196.167,487.665 196.5,556.5C 216.167,556.5 235.833,556.5 255.5,556.5C 255.5,588.833 255.5,621.167 255.5,653.5C 170.167,653.5 84.8333,653.5 -0.5,653.5C -0.5,621.167 -0.5,588.833 -0.5,556.5C 19.1667,556.5 38.8333,556.5 58.5,556.5C 58.5,487.5 58.5,418.5 58.5,349.5C 38.8333,349.5 19.1667,349.5 -0.5,349.5C -0.5,316.833 -0.5,284.167 -0.5,251.5 Z"/></g>
<g><path style="opacity:0.992" fill="#9baad6" d="M -0.5,251.5 C -0.5,251.167 -0.5,250.833 -0.5,250.5C 85.1667,250.5 170.833,250.5 256.5,250.5C 256.5,280.5 256.5,310.5 256.5,340.5C 255.502,311.005 255.169,281.338 255.5,251.5C 170.167,251.5 84.8333,251.5 -0.5,251.5 Z"/></g>
<g><path style="opacity:1" fill="#92a3d2" d="M 527.5,265.5 C 528.71,265.932 529.71,266.599 530.5,267.5C 528.821,267.715 527.821,267.048 527.5,265.5 Z"/></g>
<g><path style="opacity:1" fill="#92a3d2" d="M 994.5,270.5 C 995.71,270.932 996.71,271.599 997.5,272.5C 995.821,272.715 994.821,272.048 994.5,270.5 Z"/></g>
<g><path style="opacity:1" fill="#92a3d2" d="M 540.5,272.5 C 541.71,272.932 542.71,273.599 543.5,274.5C 541.821,274.715 540.821,274.048 540.5,272.5 Z"/></g>
<g><path style="opacity:1" fill="#92a3d2" d="M 998.5,272.5 C 999.71,272.932 1000.71,273.599 1001.5,274.5C 999.821,274.715 998.821,274.048 998.5,272.5 Z"/></g>
<g><path style="opacity:0.992" fill="#97a6d4" d="M 1062.5,325.5 C 1063.91,325.973 1064.57,326.973 1064.5,328.5C 1063.09,328.027 1062.43,327.027 1062.5,325.5 Z"/></g>
<g><path style="opacity:0.812" fill="#bac3e3" d="M -0.5,350.5 C -0.5,350.167 -0.5,349.833 -0.5,349.5C 19.1667,349.5 38.8333,349.5 58.5,349.5C 58.5,418.5 58.5,487.5 58.5,556.5C 38.8333,556.5 19.1667,556.5 -0.5,556.5C -0.5,556.167 -0.5,555.833 -0.5,555.5C 18.8333,555.5 38.1667,555.5 57.5,555.5C 57.5,487.167 57.5,418.833 57.5,350.5C 38.1667,350.5 18.8333,350.5 -0.5,350.5 Z"/></g>
<g><path style="opacity:1" fill="#5677ba" d="M 558.5,393.5 C 586.789,394.483 615.123,394.817 643.5,394.5C 615.67,395.664 587.67,395.83 559.5,395C 558.944,394.617 558.611,394.117 558.5,393.5 Z"/></g>
<g><path style="opacity:1" fill="#92a3d2" d="M 582.5,422.5 C 583.71,422.932 584.71,423.599 585.5,424.5C 583.821,424.715 582.821,424.048 582.5,422.5 Z"/></g>
<g><path style="opacity:1" fill="#92a3d2" d="M 408.5,551.5 C 409.71,551.932 410.71,552.599 411.5,553.5C 409.821,553.715 408.821,553.048 408.5,551.5 Z"/></g>
<g><path style="opacity:0.812" fill="#a8b3db" d="M 197.5,350.5 C 197.5,418.833 197.5,487.167 197.5,555.5C 217.167,555.5 236.833,555.5 256.5,555.5C 256.5,588.5 256.5,621.5 256.5,654.5C 170.833,654.5 85.1667,654.5 -0.5,654.5C -0.5,654.167 -0.5,653.833 -0.5,653.5C 84.8333,653.5 170.167,653.5 255.5,653.5C 255.5,621.167 255.5,588.833 255.5,556.5C 235.833,556.5 216.167,556.5 196.5,556.5C 196.167,487.665 196.501,418.998 197.5,350.5 Z"/></g>
<g><path style="opacity:1" fill="#92a3d2" d="M 687.5,560.5 C 689.048,560.821 689.715,561.821 689.5,563.5C 688.599,562.71 687.932,561.71 687.5,560.5 Z"/></g>
<g><path style="opacity:0.992" fill="#9aa8d5" d="M 404.5,696.5 C 398.729,695.887 393.396,696.554 388.5,698.5C 387.596,697.791 387.263,696.791 387.5,695.5C 393.358,695.178 399.025,695.511 404.5,696.5 Z"/></g>
<g><path style="opacity:1" fill="#2660ae" d="M 198.5,735.5 C 198.427,737.027 199.094,738.027 200.5,738.5C 218.403,758.237 237.736,776.404 258.5,793C 260.5,793.667 262.5,793.667 264.5,793C 277.5,785.5 290.5,778 303.5,770.5C 304.244,769.009 304.91,767.509 305.5,766C 295.333,753.167 285.167,740.333 275,727.5C 268.201,718.071 262.035,708.238 256.5,698C 256.905,697.055 257.572,696.388 258.5,696C 263.707,695.241 268.874,695.408 274,696.5C 279.027,703.362 283.861,710.362 288.5,717.5C 288.427,719.027 289.094,720.027 290.5,720.5C 296.183,726.854 301.516,733.52 306.5,740.5C 306.427,742.027 307.094,743.027 308.5,743.5C 313.479,749.146 318.812,754.479 324.5,759.5C 349.348,749.05 374.681,739.883 400.5,732C 401.517,730.951 401.684,729.784 401,728.5C 395.986,718.812 391.82,708.812 388.5,698.5C 393.396,696.554 398.729,695.887 404.5,696.5C 409.638,706.105 414.805,715.772 420,725.5C 420.561,726.022 421.228,726.355 422,726.5C 455.538,719.995 489.371,715.829 523.5,714C 524,713.5 524.5,713 525,712.5C 525.499,707.177 525.666,701.844 525.5,696.5C 531.167,696.5 536.833,696.5 542.5,696.5C 543.39,702.233 543.724,707.899 543.5,713.5C 579.125,715.015 614.292,719.682 649,727.5C 654.039,717.255 659.206,707.089 664.5,697C 670.196,696.17 675.863,696.337 681.5,697.5C 677.893,708.05 673.726,718.383 669,728.5C 668.251,729.635 668.417,730.635 669.5,731.5C 694.601,739.811 719.434,748.811 744,758.5C 761.997,739.496 778.163,718.996 792.5,697C 798.859,696.169 805.193,696.336 811.5,697.5C 797.792,720.709 781.959,742.376 764,762.5C 761.662,766.667 762.829,769.501 767.5,771C 780.961,778.3 794.295,785.8 807.5,793.5C 810.875,792.294 813.875,790.46 816.5,788C 823.705,781.292 831.038,774.792 838.5,768.5C 843.167,765.833 846.833,762.167 849.5,757.5C 856.159,749.508 863.159,741.841 870.5,734.5C 871.906,734.027 872.573,733.027 872.5,731.5C 877.818,724.186 883.484,717.186 889.5,710.5C 890.906,710.027 891.573,709.027 891.5,707.5C 893.947,704.115 896.28,700.615 898.5,697C 904.859,696.169 911.193,696.336 917.5,697.5C 841.645,813.716 734.645,882.216 596.5,903C 578.062,905.148 559.729,906.648 541.5,907.5C 536.167,907.5 530.833,907.5 525.5,907.5C 455.587,905.438 389.253,888.772 326.5,857.5C 326.5,856.5 326.5,855.5 326.5,854.5C 324.833,854.5 323.167,854.5 321.5,854.5C 292.406,839.964 265.74,821.964 241.5,800.5C 241.027,799.094 240.027,798.427 238.5,798.5C 203.419,769.431 173.753,735.764 149.5,697.5C 156.193,695.047 162.859,695.047 169.5,697.5C 178.424,710.754 188.091,723.421 198.5,735.5 Z M 525.5,742.5 C 526.146,772.058 525.479,801.391 523.5,830.5C 512.948,831.432 502.448,832.765 492,834.5C 490.5,834.167 489,833.833 487.5,833.5C 482.493,826.501 477.159,819.835 471.5,813.5C 471.573,811.973 470.906,810.973 469.5,810.5C 468.974,808.77 467.974,807.436 466.5,806.5C 466.573,804.973 465.906,803.973 464.5,803.5C 452.59,785.358 441.423,766.691 431,747.5C 430.219,746.056 430.386,744.723 431.5,743.5C 462.377,736.057 493.711,732.39 525.5,732.5C 525.5,735.833 525.5,739.167 525.5,742.5 Z M 543.5,732.5 C 576.387,732.265 608.72,736.265 640.5,744.5C 624.12,776.353 604.787,806.187 582.5,834C 578.5,834.667 574.5,834.667 570.5,834C 561.566,832.285 552.566,831.119 543.5,830.5C 543.5,797.833 543.5,765.167 543.5,732.5 Z M 406.5,748.5 C 408.288,748.215 409.955,748.548 411.5,749.5C 428.335,780.52 447.168,810.186 468,838.5C 468.749,839.635 468.583,840.635 467.5,841.5C 458.73,845.917 449.73,849.417 440.5,852C 404.218,831.77 371.051,807.27 341,778.5C 340.212,776.835 339.878,775.169 340,773.5C 361.534,763.269 383.7,754.936 406.5,748.5 Z M 658.5,749.5 C 682.383,754.016 705.383,761.35 727.5,771.5C 728.614,772.723 728.781,774.056 728,775.5C 698.179,805.667 664.679,830.833 627.5,851C 625.155,851.17 622.821,850.837 620.5,850C 614.615,847.224 608.615,844.724 602.5,842.5C 601.337,840.45 601.504,838.45 603,836.5C 623.508,808.827 642.008,779.827 658.5,749.5 Z M 343.5,803.5 C 343.973,804.906 344.973,805.573 346.5,805.5C 369.822,826.812 395.156,845.479 422.5,861.5C 423.568,863.187 423.401,864.854 422,866.5C 419.234,869.093 416.067,871.093 412.5,872.5C 364.943,858.885 320.943,838.052 280.5,810C 279.424,808.274 279.257,806.441 280,804.5C 291.575,797.267 303.408,790.434 315.5,784C 317.754,782.85 320.087,782.516 322.5,783C 329.368,790.036 336.368,796.869 343.5,803.5 Z M 745.5,782.5 C 747.857,782.337 750.19,782.503 752.5,783C 764.833,789.833 777.167,796.667 789.5,803.5C 790.614,804.723 790.781,806.056 790,807.5C 749.635,837.264 705.135,858.931 656.5,872.5C 651.738,870.569 648.071,867.403 645.5,863C 665.426,849.414 685.093,835.414 704.5,821C 718.622,808.614 732.289,795.78 745.5,782.5 Z M 527.5,847.5 C 564.518,846.252 598.518,855.585 629.5,875.5C 630.429,876.689 630.762,878.022 630.5,879.5C 566.837,892.821 503.17,892.821 439.5,879.5C 439.343,878.127 439.51,876.793 440,875.5C 466.666,858.222 495.833,848.889 527.5,847.5 Z"/></g>
<g><path style="opacity:0.992" fill="#97a6d4" d="M 891.5,707.5 C 891.573,709.027 890.906,710.027 889.5,710.5C 889.427,708.973 890.094,707.973 891.5,707.5 Z"/></g>
<g><path style="opacity:0.992" fill="#97a6d4" d="M 288.5,717.5 C 289.906,717.973 290.573,718.973 290.5,720.5C 289.094,720.027 288.427,719.027 288.5,717.5 Z"/></g>
<g><path style="opacity:1" fill="#9dabd6" d="M 872.5,731.5 C 872.573,733.027 871.906,734.027 870.5,734.5C 870.427,732.973 871.094,731.973 872.5,731.5 Z"/></g>
<g><path style="opacity:1" fill="#9dabd6" d="M 198.5,735.5 C 199.906,735.973 200.573,736.973 200.5,738.5C 199.094,738.027 198.427,737.027 198.5,735.5 Z"/></g>
<g><path style="opacity:1" fill="#9dabd6" d="M 306.5,740.5 C 307.906,740.973 308.573,741.973 308.5,743.5C 307.094,743.027 306.427,742.027 306.5,740.5 Z"/></g>
<g><path style="opacity:0.992" fill="#8194cb" d="M 525.5,742.5 C 526.498,771.662 526.831,800.995 526.5,830.5C 525.5,830.5 524.5,830.5 523.5,830.5C 525.479,801.391 526.146,772.058 525.5,742.5 Z"/></g>
<g><path style="opacity:1" fill="#6683c2" d="M 849.5,757.5 C 846.833,762.167 843.167,765.833 838.5,768.5C 841.833,764.5 845.5,760.833 849.5,757.5 Z"/></g>
<g><path style="opacity:1" fill="#9dabd6" d="M 238.5,798.5 C 240.027,798.427 241.027,799.094 241.5,800.5C 239.973,800.573 238.973,799.906 238.5,798.5 Z"/></g>
<g><path style="opacity:1" fill="#9dabd6" d="M 343.5,803.5 C 345.027,803.427 346.027,804.094 346.5,805.5C 344.973,805.573 343.973,804.906 343.5,803.5 Z"/></g>
<g><path style="opacity:0.992" fill="#97a6d4" d="M 464.5,803.5 C 465.906,803.973 466.573,804.973 466.5,806.5C 465.094,806.027 464.427,805.027 464.5,803.5 Z"/></g>
<g><path style="opacity:0.992" fill="#97a6d4" d="M 469.5,810.5 C 470.906,810.973 471.573,811.973 471.5,813.5C 470.094,813.027 469.427,812.027 469.5,810.5 Z"/></g>
<g><path style="opacity:1" fill="#7a90c9" d="M 321.5,854.5 C 323.167,854.5 324.833,854.5 326.5,854.5C 326.5,855.5 326.5,856.5 326.5,857.5C 324.887,856.308 323.22,855.308 321.5,854.5 Z"/></g>
</svg>
